<?xml version="1.0" encoding="UTF-8" standalone="no"?>
<!DOCTYPE svg PUBLIC "-//W3C//DTD SVG 1.0//EN"
 "http://www.w3.org/TR/2001/REC-SVG-20010904/DTD/svg10.dtd" [
 <!ATTLIST svg xmlns:xlink CDATA #FIXED "http://www.w3.org/1999/xlink">
]>
<!-- Generated by Graphviz version 2.20.2 (Tue Mar &#160;2 21:46:26 UTC 2010)
     For user: (masayuki) Masayuki Ataka,,,, -->
<!-- Title: g Pages: 1 -->
<svg width="314pt" height="44pt"
 viewBox="0.00 0.00 314.00 44.00" xmlns="http://www.w3.org/2000/svg" xmlns:xlink="http://www.w3.org/1999/xlink">
<g id="graph0" class="graph" transform="scale(1 1) rotate(0) translate(4 40)">
<title>g</title>
<polygon style="fill:white;stroke:white;" points="-4,4 -4,-40 310,-40 310,4 -4,4"/>
<!-- OEBS -->
<g id="node1" class="node"><title>OEBS</title>
<ellipse style="fill:none;stroke:black;" cx="35" cy="-18" rx="35.0969" ry="18"/>
<text text-anchor="middle" x="35" y="-12.9" style="font-family:Times New Roman;font-size:14.00;">OEBS</text>
</g>
<!-- EPUB2 -->
<g id="node3" class="node"><title>EPUB2</title>
<ellipse style="fill:none;stroke:black;" cx="147" cy="-18" rx="40.9464" ry="18"/>
<text text-anchor="middle" x="147" y="-12.9" style="font-family:Times New Roman;font-size:14.00;">EPUB2</text>
</g>
<!-- OEBS&#45;&gt;EPUB2 -->
<g id="edge2" class="edge"><title>OEBS&#45;&gt;EPUB2</title>
<path style="fill:none;stroke:black;" d="M70,-18C78,-18 87,-18 96,-18"/>
<polygon style="fill:black;stroke:black;" points="96,-21.5001 106,-18 96,-14.5001 96,-21.5001"/>
</g>
<!-- EPUB3 -->
<g id="node4" class="node"><title>EPUB3</title>
<ellipse style="fill:none;stroke:black;" cx="265" cy="-18" rx="40.9464" ry="18"/>
<text text-anchor="middle" x="265" y="-12.9" style="font-family:Times New Roman;font-size:14.00;">EPUB3</text>
</g>
<!-- EPUB2&#45;&gt;EPUB3 -->
<g id="edge3" class="edge"><title>EPUB2&#45;&gt;EPUB3</title>
<path style="fill:none;stroke:black;" d="M188,-18C197,-18 205,-18 214,-18"/>
<polygon style="fill:black;stroke:black;" points="214,-21.5001 224,-18 214,-14.5001 214,-21.5001"/>
</g>
</g>
</svg>
